<?xml version="1.0" encoding="utf-8"?>
<!-- Generator: Adobe Illustrator 17.0.0, SVG Export Plug-In . SVG Version: 6.00 Build 0)  -->
<!DOCTYPE svg PUBLIC "-//W3C//DTD SVG 1.1//EN" "http://www.w3.org/Graphics/SVG/1.1/DTD/svg11.dtd">
<svg version="1.1" id="Capa_1" xmlns="http://www.w3.org/2000/svg" xmlns:xlink="http://www.w3.org/1999/xlink" x="0px" y="0px"
	 width="512px" height="512px" viewBox="0 0 512 512" enable-background="new 0 0 512 512" xml:space="preserve">
<g>
	<circle fill="#FFFFFF" stroke="#CA4826" stroke-width="10.6383" stroke-miterlimit="10" cx="256" cy="255.996" r="250"/>
	<g id="pXmeGC_1_">
		<g>
			<path fill="#A8B28E" d="M180.767,229.479c-6.533-0.877-12.473-2.719-17.184-7.425c-8.107-8.1-10.293-18.322-9.83-29.145
				c1.313-30.665,2.973-61.315,4.477-91.972c0.455-9.275,0.805-18.555,1.291-27.828c0.28-5.34,2.069-7.772,5.26-7.524
				c2.927,0.227,4.025,2.532,3.757,8.057c-1.928,39.673-3.909,79.344-5.766,119.021c-0.367,7.841,0.6,15.483,5.794,21.909
				c4.123,5.101,9.989,5.996,15.996,6.407c4.782,0.327,5.901,1.373,5.715,6.141c-0.625,15.98-1.279,31.959-1.993,47.936
				c-0.898,20.098-1.885,40.193-2.8,60.29c-1.238,27.183-2.403,54.37-3.688,81.551c-0.447,9.447,3.834,16.785,11.819,19.683
				c7.613,2.764,16.61,0.385,20.825-6.561c2.147-3.538,3.541-8.223,3.416-12.334c-0.745-24.619-2.013-49.222-3.139-73.829
				c-0.89-19.453-1.863-38.903-2.736-58.357c-0.862-19.197-1.675-38.395-2.443-57.596c-0.249-6.219,0.079-6.481,6.236-6.939
				c13.104-0.975,20.566-8.017,20.818-21.135c0.248-12.861-0.426-25.752-1.009-38.615c-1.062-23.446-2.363-46.881-3.547-70.321
				c-0.325-6.44-0.543-12.885-0.899-19.323c-0.174-3.148,0.715-5.512,4.23-5.609c3.46-0.095,4.646,2.318,4.807,5.336
				c0.569,10.689,1.091,21.381,1.618,32.072c1.468,29.755,3.101,59.503,4.305,89.269c0.435,10.766-1.613,21.082-9.66,29.24
				c-4.772,4.838-10.825,6.755-16.695,7.503c0,8.456-0.277,16.677,0.051,24.874c1.052,26.288,2.334,52.568,3.517,78.851
				c1.224,27.185,2.336,54.376,3.695,81.554c0.718,14.361-5.843,25.881-17.621,30.022c-18.863,6.632-37.502-7.559-36.586-27.702
				c1.792-39.425,3.442-78.856,5.189-118.282c0.885-19.971,1.867-39.937,2.761-59.908
				C180.881,235.843,180.767,232.886,180.767,229.479z"/>
			<path fill="#A8B28E" d="M358.293,255.925c0,60.611,0.001,121.222-0.001,181.833c0,7.716-0.699,8.22-8.384,8.449
				c-10.819,0.322-20.723-1.828-28.99-9.333c-8.35-7.58-12.475-17.02-11.694-28.219c2.303-33.045,4.845-66.073,7.31-99.106
				c0.384-5.141,0.798-10.281,1.311-15.411c0.209-2.089-0.174-3.125-2.556-3.751c-17.811-4.682-27.923-17.628-27.993-36.35
				c-0.149-40.235-0.251-80.472,0.022-120.705c0.208-30.5,17.136-54.517,45.046-64.069c6.356-2.175,13.307-2.771,20.044-3.617
				c3.983-0.5,5.645,1.394,5.858,5.353c0.069,1.286,0.026,2.579,0.026,3.868C358.293,135.219,358.293,195.572,358.293,255.925z
				 M349.112,74.925c-2.506,0.316-4.563,0.419-6.549,0.85c-27.396,5.946-45.91,27.955-46.18,56.228
				c-0.39,40.883-0.206,81.773-0.053,122.66c0.054,14.291,8.973,24.893,22.116,27.24c9.258,1.653,9.259,1.653,8.508,11.05
				c-0.041,0.514-0.109,1.026-0.148,1.54c-1.454,19.151-2.916,38.301-4.357,57.452c-1.403,18.638-2.55,37.299-4.246,55.91
				c-1.573,17.268,13.358,31.565,30.908,28.815C349.112,316.302,349.112,195.895,349.112,74.925z"/>
			<path fill="#A8B28E" d="M190.408,116.511c0,14.3,0.004,28.6-0.006,42.899c-0.001,1.286,0.371,2.882-0.239,3.789
				c-1.091,1.621-2.814,3.92-4.244,3.9c-1.442-0.02-3.019-2.39-4.193-3.984c-0.501-0.679-0.152-2.001-0.152-3.031
				c-0.004-29.115-0.004-58.23,0-87.345c0-1.03-0.366-2.376,0.141-3.027c1.21-1.553,2.734-3.661,4.334-3.853
				c1.25-0.15,3.079,2.056,4.121,3.578c0.614,0.897,0.233,2.501,0.234,3.786C190.411,87.654,190.408,102.083,190.408,116.511z"/>
			<path fill="#A8B28E" d="M215.179,116.531c0,14.3,0.004,28.6-0.006,42.899c-0.001,1.286,0.37,2.885-0.242,3.789
				c-1.096,1.616-2.832,3.906-4.259,3.878c-1.445-0.029-3.053-2.38-4.166-4.005c-0.548-0.8-0.162-2.255-0.162-3.414
				c-0.004-28.857-0.004-57.714,0-86.572c0-1.159-0.405-2.645,0.155-3.408c1.158-1.577,2.739-3.654,4.339-3.837
				c1.252-0.143,3.069,2.07,4.106,3.596c0.612,0.9,0.229,2.501,0.23,3.787C215.183,87.674,215.179,102.103,215.179,116.531z"/>
		</g>
	</g>
</g>
</svg>
