<?xml version="1.0" encoding="utf-8"?>
<!-- Generator: Adobe Illustrator 17.0.0, SVG Export Plug-In . SVG Version: 6.00 Build 0)  -->
<!DOCTYPE svg PUBLIC "-//W3C//DTD SVG 1.1//EN" "http://www.w3.org/Graphics/SVG/1.1/DTD/svg11.dtd">
<svg version="1.1" id="Capa_1" xmlns="http://www.w3.org/2000/svg" xmlns:xlink="http://www.w3.org/1999/xlink" x="0px" y="0px"
	 width="512px" height="512px" viewBox="0 0 512 512" enable-background="new 0 0 512 512" xml:space="preserve">
<g>
	<circle fill="#FFFFFF" stroke="#CA4826" stroke-width="10.6383" stroke-miterlimit="10" cx="255.772" cy="256" r="250"/>
</g>
<g id="YpGXX5_1_">
	<g>
		<path fill="#A8B28E" d="M253.395,334.88c-5.818-1.019-11.778-1.764-17.582-3.158c-6.65-1.598-12.96-4.244-18.048-9.027
			c-7.018-6.596-6.579-14.871,0.994-20.954c5.962-4.789,12.935-7.381,20.305-8.906c15.704-3.249,31.236-2.834,46.413,2.791
			c5.386,1.996,10.358,4.718,14.012,9.334c3.937,4.973,3.964,10.375,0.017,15.306c-5.943,7.424-14.456,10.151-23.198,12.178
			c-4.867,1.129-9.893,1.569-14.99,2.342"/>
		<path fill="#A8B28E" d="M240.948,153.448c1.625,1.297,3.271,2.568,4.871,3.895c7.721,6.404,15.402,12.857,23.161,19.215
			c2.098,1.719,2.892,3.679,2.662,6.404c-2.024,23.977-3.946,47.964-5.925,71.945c-0.348,4.211-0.825,8.412-1.248,12.675
			c-4.22,0-8.302,0.101-12.375-0.046c-1.786-0.064-2.967-0.964-3.137-3.139c-1.725-21.993-3.531-43.979-5.342-65.964
			c-1.07-12.992-2.2-25.978-3.28-38.969c-0.153-1.846-0.177-3.703-0.261-5.554C240.365,153.755,240.657,153.602,240.948,153.448z"/>
		<path fill="#A8B28E" d="M61.986,230.465c3.393-0.342,6.782-0.723,10.179-1.018c12.656-1.098,25.308-2.247,37.977-3.171
			c2.136-0.156,4.459,0.391,6.505,1.137c38.273,13.957,76.518,27.993,114.767,42.017c0.614,0.225,1.205,0.509,2.029,0.861
			c-4.711,2.047-9.143,4.108-13.696,5.85c-1.081,0.414-2.62-0.074-3.867-0.431c-31.449-9.005-62.886-18.052-94.328-27.082
			c-18.811-5.403-37.629-10.787-56.437-16.201c-1.101-0.317-2.146-0.827-3.217-1.248C61.928,230.94,61.957,230.703,61.986,230.465z"
			/>
		<path fill="#A8B28E" d="M292.103,274.343c52.688-16.818,104.719-33.426,156.75-50.035c0.16,0.297,0.32,0.595,0.479,0.892
			c-0.857,0.968-1.702,1.947-2.573,2.903c-6.83,7.505-13.575,15.09-20.573,22.435c-1.418,1.489-3.692,2.486-5.748,2.996
			c-36.192,8.973-72.436,17.736-108.597,26.827c-5.466,1.374-10.124,2.145-14.292-2.617
			C296.369,276.396,294.4,275.737,292.103,274.343z"/>
		<path fill="#A8B28E" d="M75.005,335.391c4.991-5.346,10.658-10.219,14.817-16.148c6.48-9.238,15.869-10.705,25.791-12.184
			c18.503-2.758,36.94-5.963,55.405-8.977c11.856-1.935,23.713-3.858,35.236-5.733c1.365,3.92,2.655,7.624,4.073,11.695
			c-44.662,10.748-89.707,21.587-134.751,32.427C75.386,336.111,75.195,335.751,75.005,335.391z"/>
		<path fill="#A8B28E" d="M305.286,303.451c1.669-3.907,3.217-7.532,4.983-11.666c47.399,4.254,95.372,8.559,143.345,12.865
			c0.038,0.338,0.076,0.676,0.114,1.013c-2.449,0.65-4.883,1.36-7.348,1.94c-13.103,3.084-26.129,6.606-39.362,8.969
			c-5.388,0.962-11.268-0.339-16.858-1.096c-21.743-2.946-43.46-6.081-65.184-9.16C318.38,305.38,311.791,304.398,305.286,303.451z"
			/>
		<path fill="#A8B28E" d="M301.174,303.119c-5.313-8.17-13.419-11.587-22.032-13.795c-15.53-3.98-31.083-3.824-46.473,0.988
			c-8.779,2.745-13.174,5.743-18.733,12.609c-5.581-4.891-5.983-12.386-0.832-18.322c4.765-5.491,11.082-8.541,17.892-10.536
			c19.972-5.851,39.822-5.743,59.16,2.406c4.287,1.807,8.304,4.843,11.673,8.109C307.381,289.961,306.912,297.283,301.174,303.119z"
			/>
		<path fill="#A8B28E" d="M266.965,267.948c0.535-6.596,1.062-13.097,1.609-19.841c8.783,1.607,16.788,4.166,23.135,10.264
			c1.971,1.894,3.603,4.271,4.929,6.68c2.372,4.308,2.061,4.569-2.502,6.176c-3.547,1.249-6.86,1.933-10.564,0.223
			c-2.474-1.142-5.352-1.443-8.074-2.002C272.795,268.892,270.06,268.485,266.965,267.948z"/>
		<path fill="#A8B28E" d="M217.28,261.636c7.631-8.434,17.074-11.953,27.904-13.783c0.615,6.877,1.197,13.374,1.798,20.099
			c-4.146,1.055-8.263,2.043-12.715,0.106C228.889,265.718,223.291,263.881,217.28,261.636z"/>
	</g>
</g>
</svg>
