<?xml version="1.0" encoding="utf-8"?>
<!-- Generator: Adobe Illustrator 17.0.0, SVG Export Plug-In . SVG Version: 6.00 Build 0)  -->
<!DOCTYPE svg PUBLIC "-//W3C//DTD SVG 1.1//EN" "http://www.w3.org/Graphics/SVG/1.1/DTD/svg11.dtd">
<svg version="1.1" id="Capa_1" xmlns="http://www.w3.org/2000/svg" xmlns:xlink="http://www.w3.org/1999/xlink" x="0px" y="0px"
	 width="512px" height="512px" viewBox="0 0 512 512" enable-background="new 0 0 512 512" xml:space="preserve">
<g>
	<circle fill="#FFFFFF" stroke="#CA4826" stroke-width="10.6383" stroke-miterlimit="10" cx="257.47" cy="256" r="250"/>
</g>
<g id="sAcuVH_1_">
	<g>
		<path fill="#A8B28E" d="M304.266,183.895c-2.56-36.016-44.309-58.631-76.707-42.213c-20.837,10.559-30.925,27.944-30.944,51.148
			c-0.059,73.086-0.019,146.173-0.036,219.26c-0.001,2.727,0.806,6.165-0.517,8.021c-2.184,3.063-5.803,7.026-8.813,7.023
			c-2.875-0.003-6.06-4.326-8.467-7.275c-1.021-1.251-0.512-3.839-0.512-5.82c-0.017-73.584-0.115-147.168,0.037-220.751
			c0.064-31.154,14.123-54.103,41.893-68.388c40.306-20.733,94.368,6.353,101.599,51.045c0.917,5.67,2.822,8.414,8.684,9.79
			c24.27,5.697,43.376,30.048,43.733,54.901c0.108,7.495-2.882,11.319-10.517,11.37c-32.812,0.219-65.628,0.225-98.439-0.037
			c-7.464-0.06-10.41-4.081-10.254-11.658c0.5-24.219,19.047-48.013,42.516-54.544C299.642,185.176,301.763,184.589,304.266,183.895
			z M354.21,233.219c-3.65-19.294-20.979-32.165-42.007-31.45c-18.258,0.62-34.989,14.829-36.906,31.45
			C301.594,233.219,327.875,233.219,354.21,233.219z"/>
		<path fill="#A8B28E" d="M324.537,298.226c-0.005,6.446,0.18,12.9-0.06,19.337c-0.222,5.968-2.349,11.11-9.35,11.031
			c-6.958-0.078-9.109-5.195-9.183-11.194c-0.156-12.643-0.095-25.29-0.031-37.935c0.031-6.105,2.323-10.845,9.022-11.564
			c5.455-0.586,9.339,4.29,9.567,11.73C324.694,285.824,324.543,292.027,324.537,298.226z"/>
		<path fill="#A8B28E" d="M353.352,298.491c0.003,6.698,0.116,13.399-0.029,20.094c-0.142,6.55-3.735,10.503-9.247,10.067
			c-6-0.475-8.611-4.173-8.602-10.013c0.022-13.644,0.013-27.289,0.009-40.933c-0.002-5.981,3.154-9.693,8.908-9.708
			c5.75-0.015,8.951,3.668,8.956,9.655C353.354,284.598,353.349,291.544,353.352,298.491z"/>
		<path fill="#A8B28E" d="M277.098,298.269c0.001-6.944-0.058-13.888,0.019-20.83c0.066-5.974,3.372-9.549,9.149-9.447
			c5.378,0.095,8.698,3.697,8.765,9.192c0.174,14.134,0.225,28.274-0.028,42.405c-0.096,5.355-3.2,9.017-8.847,9.022
			c-5.995,0.004-8.945-3.659-9.035-9.511C277.015,312.157,277.097,305.212,277.098,298.269z"/>
	</g>
</g>
</svg>
