<?xml version="1.0" encoding="utf-8"?>
<!-- Generator: Adobe Illustrator 17.0.0, SVG Export Plug-In . SVG Version: 6.00 Build 0)  -->
<!DOCTYPE svg PUBLIC "-//W3C//DTD SVG 1.1//EN" "http://www.w3.org/Graphics/SVG/1.1/DTD/svg11.dtd">
<svg version="1.1" id="Capa_1" xmlns="http://www.w3.org/2000/svg" xmlns:xlink="http://www.w3.org/1999/xlink" x="0px" y="0px"
	 width="512px" height="512px" viewBox="0 0 512 512" enable-background="new 0 0 512 512" xml:space="preserve">
<g>
	<g>
		<circle fill="#FFFFFF" stroke="#CA4826" stroke-width="10.6383" stroke-miterlimit="10" cx="255.999" cy="255.427" r="250"/>
		<text transform="matrix(1 0 0 1 141.3104 440.1153)" fill="#A8B28E" font-family="'CenturyGothic-Bold'" font-size="92.492">24hrs</text>
	</g>
	<g id="nNEwLf_1_">
		<g>
			<path fill="#A8B28E" d="M393.125,210.838c-7.807,19.152-14.467,23.57-35.534,23.571c-15.434,0.001-30.869,0.07-46.303-0.017
				c-19.727-0.112-31.504-11.95-31.534-31.562c-0.02-12.926-0.004-25.851-0.004-39.454c-7.409,0.664-14.259,1.278-22.539,2.021
				c6.714-9.614,12.932-18.148,18.695-26.979c1.913-2.932,3.332-6.534,3.817-9.992c2.245-16.006,11.916-26.09,28.023-26.626
				c19.31-0.643,38.665-0.367,57.99,0.019c13.543,0.27,21.963,7.892,26.231,20.466c0.249,0.735,0.765,1.379,1.157,2.065
				C393.125,153.178,393.125,182.008,393.125,210.838z M293.8,148.134c0,2.444,0,4.672,0,6.901
				c0.004,16.451-0.1,32.902,0.051,49.351c0.095,10.388,5.847,16.031,16.05,16.063c17.89,0.054,35.78,0.068,53.67-0.007
				c9.155-0.039,15.558-5.563,15.671-14.687c0.312-25.288,0.287-50.584-0.024-75.872c-0.102-8.272-5.654-14.224-13.3-14.362
				c-19.526-0.352-39.065-0.294-58.595-0.04c-6.612,0.086-11.686,4.998-13.128,11.1c-1.676,7.097-3.496,14.16-5.262,21.274
				C289.315,147.876,291.269,147.989,293.8,148.134z"/>
			<path fill="#A8B28E" d="M122.052,325.036c1.581-12.912,2.913-24.622,4.474-36.301c1.47-10.996,3.227-21.954,4.777-32.94
				c1.68-11.903,9.762-20.576,21.852-21.584c10.839-0.903,21.792-0.591,32.691-0.485c1.746,0.017,3.795,1.44,5.15,2.776
				c3.659,3.605,7.019,7.514,11.981,12.917c3.839-4.618,6.621-8.73,10.191-11.975c2.177-1.979,5.516-3.529,8.423-3.696
				c8.413-0.483,16.873-0.264,25.312-0.147c16.602,0.23,25.461,7.947,27.92,24.223c2.731,18.082,5.55,36.152,8.017,54.27
				c0.536,3.938-0.258,8.056-0.472,12.82c2.083,0,4.293,0,6.503,0c27.792,0,55.585-0.001,83.377,0.002
				c1.853,0,3.708-0.034,5.557,0.059c4.327,0.22,7.875,1.698,7.993,6.688c0.127,5.378-3.575,6.905-8.167,7.112
				c-1.85,0.083-3.705,0.057-5.557,0.057c-81.112,0.002-162.225,0.003-243.337-0.004c-2.056,0-4.48,0.579-6.087-0.296
				c-2.76-1.503-6.305-3.51-7.166-6.09c-1.243-3.728,1.721-6.404,5.731-7.193C122.016,325.093,122.797,324.838,122.052,325.036z
				 M223.884,304.648c-17.872,15.227-19.673,15.369-37.331,3.136c-0.169-0.117-0.324-0.264-0.507-0.351
				c-3.058-1.438-3.186-3.406-2.018-6.5c4.279-11.332,8.219-22.792,12.22-34.227c0.523-1.496,1.474-3.941,0.848-4.566
				c-5.19-5.185-10-12.676-16.293-14.36c-8.537-2.284-18.345-0.574-27.489,0.465c-4.919,0.559-7.784,4.433-8.502,9.949
				c-2.361,18.127-4.883,36.242-7.858,54.277c-0.982,5.956,1.473,9.198,6.263,11.016c2.964,1.125,6.404,1.363,9.631,1.372
				c33.341,0.092,66.682,0.061,100.023,0.047c2.054-0.001,4.134,0.039,6.157-0.253c7.727-1.116,10.962-5.501,9.814-13.219
				c-2.597-17.47-5.547-34.895-7.693-52.42c-0.862-7.039-4.458-10.762-10.753-11.323c-8.575-0.765-17.247-0.554-25.875-0.476
				c-1.374,0.012-2.945,1.304-4.062,2.381c-2.96,2.851-5.513,6.15-8.622,8.812c-2.918,2.499-2.739,4.89-1.54,8.141
				C214.978,279.234,219.403,292.014,223.884,304.648z M203.483,288.371c-1.483,3.869-2.633,6.265-3.26,8.79
				c-0.263,1.058,0.222,2.854,1.02,3.474c0.852,0.661,2.764,0.826,3.679,0.292c0.906-0.529,1.752-2.314,1.557-3.346
				C205.996,295.013,204.904,292.559,203.483,288.371z"/>
			<path fill="#A8B28E" d="M154.28,180.335c0.01-27.456,21.472-48.943,48.833-48.888c27.019,0.054,49.186,22.264,49.015,49.109
				c-0.169,26.562-22.193,48.515-48.915,48.758C176.282,229.56,154.271,207.527,154.28,180.335z M173.231,162.549
				c-9.805,15.44-5.632,35.469,9.261,46.197c15.241,10.979,35.487,8.339,47.569-6.204c4.907-5.906,5.534-10.632-0.299-15.575
				c-4.943-4.189-11.322-7.429-17.598-9.146C198.572,174.104,184.284,172.588,173.231,162.549z M237.571,174.134
				c-3.335-13.772-10.63-22.377-22.33-26.69c-11.184-4.123-22.075-2.992-32.672,4.467
				C198.162,166.443,220.262,162.369,237.571,174.134z"/>
		</g>
	</g>
</g>
</svg>
