<?xml version="1.0" encoding="utf-8"?>
<!-- Generator: Adobe Illustrator 17.0.0, SVG Export Plug-In . SVG Version: 6.00 Build 0)  -->
<!DOCTYPE svg PUBLIC "-//W3C//DTD SVG 1.1//EN" "http://www.w3.org/Graphics/SVG/1.1/DTD/svg11.dtd">
<svg version="1.1" id="Capa_1" xmlns="http://www.w3.org/2000/svg" xmlns:xlink="http://www.w3.org/1999/xlink" x="0px" y="0px"
	 width="512px" height="512px" viewBox="0 0 512 512" enable-background="new 0 0 512 512" xml:space="preserve">
<g>
	<g>
		<circle fill="#FFFFFF" stroke="#CA4826" stroke-width="10.6383" stroke-miterlimit="10" cx="256.21" cy="254.321" r="250"/>
	</g>
	<g id="eXifgC_1_">
		<g>
			<path fill="#A8B28E" d="M76.917,189.284c1.985-1.926,3.748-4.172,5.989-5.729c38.769-26.917,81.507-44.058,128.129-51.301
				c10.313-1.602,20.79-2.184,31.206-3.075c6.412-0.549,12.87-1.325,19.273-1.09c45.94,1.687,90.112,10.909,131.615,31.367
				c15.856,7.816,31.022,16.741,45.408,27.003c0,3.296,0,6.592,0,9.888c-4.329,3.53-6.475,3.736-11.031,0.573
				c-24.884-17.277-51.677-30.735-80.582-39.79c-45.946-14.394-92.686-17.294-140.117-8.951
				c-42.203,7.424-80.73,23.726-115.985,47.954c-6.485,4.457-8.992,4.093-13.906-1.905C76.917,192.58,76.917,190.932,76.917,189.284
				z"/>
			<path fill="#A8B28E" d="M258.53,202.412c46.244,0.141,88.413,13.381,126.436,39.739c4.293,2.976,5.515,7.227,3.178,10.846
				c-2.53,3.918-7.169,4.553-11.741,1.384c-21.484-14.894-44.897-25.509-70.321-31.568c-25.428-6.059-51.103-7.095-76.991-3.391
				c-32.349,4.628-61.764,16.594-88.604,35.104c-4.32,2.979-8.808,2.341-11.445-1.515c-2.466-3.606-1.323-7.844,3.039-10.853
				c36.159-24.947,76.106-38.467,120.099-39.74C254.295,202.359,256.413,202.412,258.53,202.412z"/>
			<path fill="#A8B28E" d="M258.275,275.867c27.464,0.778,52.647,8.234,75.452,23.533c2.702,1.813,4.649,3.989,4.484,7.447
				c-0.284,5.965-6.535,8.701-12.046,5.616c-8.088-4.527-15.985-9.739-24.608-12.909c-38.488-14.148-75.233-10.177-109.766,12.255
				c-5.69,3.696-11.418,2.035-12.755-3.912c-0.799-3.553,0.895-6.142,3.718-8.074c15.125-10.354,31.661-17.461,49.695-20.716
				C240.976,277.569,249.662,276.919,258.275,275.867z"/>
			<path fill="#A8B28E" d="M288.082,379.334c-0.313,19.365-15.228,29.239-29.368,30.05c-15.605,0.894-29.848-14.121-29.856-30.048
				c-0.008-16.135,13.53-29.661,29.677-29.652C274.802,349.693,288.081,363.019,288.082,379.334z M258.48,364.84
				c-8.108,0.012-14.57,6.422-14.583,14.466c-0.013,8.025,6.464,14.521,14.533,14.577c8.167,0.056,14.946-6.662,14.837-14.704
				C273.158,371.187,266.601,364.829,258.48,364.84z"/>
		</g>
	</g>
</g>
</svg>
