<?xml version="1.0" encoding="utf-8"?>
<!-- Generator: Adobe Illustrator 17.0.0, SVG Export Plug-In . SVG Version: 6.00 Build 0)  -->
<!DOCTYPE svg PUBLIC "-//W3C//DTD SVG 1.1//EN" "http://www.w3.org/Graphics/SVG/1.1/DTD/svg11.dtd">
<svg version="1.1" id="Capa_1" xmlns="http://www.w3.org/2000/svg" xmlns:xlink="http://www.w3.org/1999/xlink" x="0px" y="0px"
	 width="512px" height="512px" viewBox="0 0 512 512" enable-background="new 0 0 512 512" xml:space="preserve">
<g>
	<circle fill="#FFFFFF" stroke="#CA4826" stroke-width="10.6383" stroke-miterlimit="10" cx="255.529" cy="256" r="250"/>
	<g id="_x31_pm6A3_1_">
		<g>
			<path fill="#A8B28E" d="M326.936,127.266c0.867,3.488,1.629,5.404,1.789,7.369c2.751,33.808,2.735,33.813-30.264,33.821
				c-21.368,0.006-42.736,0.001-65.888,0.001c0,24.752,0,47.694,0,72.974c29.534,0,58.75,0,89.571,0c0,15.168,0,28.077,0,42.863
				c-29.497,0-58.754,0-91.192,0c0,24.209-0.606,46.735,0.634,69.159c0.192,3.481,8.694,9.035,13.575,9.284
				c20.752,1.059,41.587,0.469,62.392,0.505c26.562,0.046,26.624,0.058,25.555,26.813c-0.181,4.543-1.151,9.055-1.897,14.631
				c-51.378,0-101.966,0-153.583,0c0-92.652,0-184.317,0-277.42C227.163,127.266,276.392,127.266,326.936,127.266z"/>
		</g>
	</g>
</g>
</svg>
