<?xml version="1.0" encoding="utf-8"?>
<!-- Generator: Adobe Illustrator 17.0.0, SVG Export Plug-In . SVG Version: 6.00 Build 0)  -->
<!DOCTYPE svg PUBLIC "-//W3C//DTD SVG 1.1//EN" "http://www.w3.org/Graphics/SVG/1.1/DTD/svg11.dtd">
<svg version="1.1" id="Capa_1" xmlns="http://www.w3.org/2000/svg" xmlns:xlink="http://www.w3.org/1999/xlink" x="0px" y="0px"
	 width="100px" height="100px" viewBox="0 0 100 100" enable-background="new 0 0 100 100" xml:space="preserve">
<g>
	<circle fill="#FFFFFF" stroke="#CA4826" stroke-width="2.0487" stroke-miterlimit="10" cx="49.951" cy="49.384" r="48.144"/>
	<g>
		<path fill="none" stroke="#A8B28E" stroke-width="1.8167" stroke-miterlimit="10" d="M76.823,19.105c0,0,0-4.099-4.996-4.099
			c0,0-3.785,0.314-4.542,5.008v38.303"/>
		<path fill="none" stroke="#A8B28E" stroke-width="1.8167" stroke-miterlimit="10" d="M62.318,19.105c0,0,0-4.099-4.996-4.099
			c0,0-3.785,0.314-4.542,5.008v41.13"/>
		
			<line fill="none" stroke="#A8B28E" stroke-width="1.8167" stroke-miterlimit="10" x1="52.146" y1="32.276" x2="67.285" y2="32.276"/>
		
			<line fill="none" stroke="#A8B28E" stroke-width="1.8167" stroke-miterlimit="10" x1="52.78" y1="46.053" x2="67.285" y2="46.053"/>
		<path fill="none" stroke="#A8B28E" stroke-width="1.8167" stroke-miterlimit="10" d="M17.779,57.029c0,0,2.725-1.741,6.964,2.195
			s10.9-1.289,10.9-1.289s4.542-5.615,11.506,2.757c0,0,5.961,4.436,10.399-3.663c0,0,4.135-4.163,9.737,2.195
			s9.538-1.741,9.538-1.741s2.574-2.195,5.299-0.454"/>
		<path fill="none" stroke="#A8B28E" stroke-width="1.8167" stroke-miterlimit="10" d="M17.703,74.211c0,0,2.725-1.741,6.964,2.195
			s10.9-1.289,10.9-1.289s4.542-5.615,11.506,2.757c0,0,5.961,4.436,10.399-3.663c0,0,4.135-4.163,9.737,2.195
			s9.538-1.741,9.538-1.741s2.574-2.195,5.299-0.454"/>
	</g>
</g>
</svg>
