<?xml version="1.0" encoding="utf-8"?>
<!-- Generator: Adobe Illustrator 17.0.0, SVG Export Plug-In . SVG Version: 6.00 Build 0)  -->
<!DOCTYPE svg PUBLIC "-//W3C//DTD SVG 1.1//EN" "http://www.w3.org/Graphics/SVG/1.1/DTD/svg11.dtd">
<svg version="1.1" id="Capa_1" xmlns="http://www.w3.org/2000/svg" xmlns:xlink="http://www.w3.org/1999/xlink" x="0px" y="0px"
	 width="512px" height="512px" viewBox="0 0 512 512" enable-background="new 0 0 512 512" xml:space="preserve">
<g>
	<circle fill="#FFFFFF" stroke="#CA4826" stroke-width="10.6383" stroke-miterlimit="10" cx="255.407" cy="255.003" r="250"/>
</g>
<g id="PKoJ7q_1_">
	<g>
		<path fill="#A8B28E" d="M252.003,300.026c-38.656,0-77.315-0.231-115.968,0.108c-16.615,0.146-30.381-12.757-32.532-27.109
			c-0.207-1.382-0.237-2.801-0.238-4.203c-0.015-20.032,0.356-40.073-0.128-60.093c-0.376-15.554,13.359-32.53,32.541-32.452
			c33.193,0.134,66.386,0.037,99.58,0.037c44.368,0,88.736-0.002,133.104,0.001c16.402,0.001,29.545,10.866,32.606,26.979
			c0.229,1.208,0.28,2.465,0.281,3.699c0.016,20.777,0.035,41.554,0.004,62.33c-0.022,15.269-13.748,29.683-29.063,30.581
			c-1.486,0.087-2.977,0.116-4.466,0.117C329.151,300.028,290.577,300.026,252.003,300.026z M388.85,238.991
			c0-0.943,0-1.678,0-2.414c0-9.436,0.02-18.872-0.005-28.307c-0.032-12.109-7.172-19.263-19.318-19.265
			c-78.052-0.016-156.104-0.01-234.157,0.004c-1.732,0-3.506-0.026-5.188,0.318c-9.109,1.863-14.397,8.513-14.49,18.323
			c-0.093,9.849-0.025,19.699-0.018,29.549c0,0.557,0.084,1.114,0.139,1.792C206.785,238.991,297.632,238.991,388.85,238.991z
			 M115.782,251.78c0,6.521-0.33,12.898,0.142,19.216c0.229,3.072,1.459,6.343,3.109,8.977c3.444,5.498,8.988,7.51,15.313,7.511
			c78.628,0.005,157.256,0.003,235.884,0.002c0.579,0,1.159,0.003,1.738-0.026c8.069-0.395,15.25-6.024,16.22-13.843
			c0.888-7.163,0.641-14.466,0.899-21.838C297.745,251.78,206.895,251.78,115.782,251.78z"/>
		<path fill="#A8B28E" d="M163.435,400.243c-7.234-11.341-11.965-22.857-6.496-36.094c1.234-2.988,3.473-5.561,5.259-8.319
			c0.178-0.275,0.429-0.502,0.645-0.752c6.005-6.944,5.763-9.654-1.567-15.554c0.898-1.769,1.808-3.594,2.748-5.404
			c0.943-1.817,1.916-3.619,2.872-5.42c12.089,5.995,15.645,18.966,8.467,30.452c-0.828,1.325-1.721,2.653-2.8,3.773
			c-6.078,6.308-6.622,13.566-3.611,21.333c1.093,2.819,2.706,5.435,4.177,8.329C170.096,394.983,166.934,397.479,163.435,400.243z"
			/>
		<path fill="#A8B28E" d="M217.791,339.427c1.876-3.62,3.692-7.124,5.505-10.625c11.661,5.742,14.454,16.388,10.768,25.806
			c-1.152,2.943-2.838,5.89-4.972,8.194c-6.201,6.696-6.643,14.08-3.4,22.062c1.049,2.581,2.54,4.982,3.95,7.697
			c-3.043,2.412-6.193,4.908-9.529,7.553c-3.548-4.538-5.939-9.552-7.527-14.946c-3.32-11.275-1.22-21.328,6.745-30.151
			C225.436,348.253,225.152,345.969,217.791,339.427z"/>
		<path fill="#A8B28E" d="M286.716,392.612c-3.049,2.407-6.208,4.901-9.536,7.527c-4.348-5.94-7.252-12.32-8.497-19.423
			c-1.719-9.806,1.036-18.29,7.704-25.584c0.335-0.366,0.665-0.737,0.99-1.112c4.775-5.507,4.365-9.235-1.498-13.649
			c-0.26-0.196-0.515-0.398-1.036-0.802c1.869-3.613,3.74-7.231,5.606-10.84c10.592,4.86,15.035,16.375,10.347,26.917
			c-1.158,2.604-2.718,5.185-4.649,7.261c-5.893,6.336-6.614,13.426-3.62,21.136C283.653,386.941,285.254,389.656,286.716,392.612z"
			/>
		<path fill="#A8B28E" d="M343.207,392.619c-3.058,2.413-6.159,4.86-9.188,7.25c-0.32-0.107-0.541-0.11-0.612-0.215
			c-7.569-11.078-11.716-22.801-6.126-36.046c1.165-2.761,3.249-5.134,4.913-7.683c0.089-0.137,0.217-0.249,0.326-0.373
			c6.535-7.426,6.406-9.57-1.116-16.092c1.819-3.525,3.661-7.096,5.503-10.665c10.882,5.347,14.587,15.448,10.948,25.313
			c-1.201,3.255-3.138,6.451-5.447,9.042c-5.615,6.3-6.356,13.2-3.474,20.727C340.044,386.781,341.659,389.493,343.207,392.619z"/>
		<path fill="#A8B28E" d="M321.707,261.614c0,4.181,0,8.12,0,12.229c-6.378,0-12.677,0-19.107,0c0-4.101,0-8.096,0-12.229
			C308.985,261.614,315.228,261.614,321.707,261.614z"/>
		<path fill="#A8B28E" d="M352.826,261.646c0,4.082,0,8.011,0,12.154c-6.327,0-12.617,0-19.086,0c0-4,0-7.99,0-12.154
			C340.096,261.646,346.39,261.646,352.826,261.646z"/>
	</g>
</g>
</svg>
