<?xml version="1.0" encoding="utf-8"?>
<!-- Generator: Adobe Illustrator 17.0.0, SVG Export Plug-In . SVG Version: 6.00 Build 0)  -->
<!DOCTYPE svg PUBLIC "-//W3C//DTD SVG 1.1//EN" "http://www.w3.org/Graphics/SVG/1.1/DTD/svg11.dtd">
<svg version="1.1" id="Capa_1" xmlns="http://www.w3.org/2000/svg" xmlns:xlink="http://www.w3.org/1999/xlink" x="0px" y="0px"
	 width="512px" height="512px" viewBox="0 0 512 512" enable-background="new 0 0 512 512" xml:space="preserve">
<g>
	<circle fill="#FFFFFF" stroke="#CA4826" stroke-width="10.6383" stroke-miterlimit="10" cx="254.922" cy="256.078" r="250"/>
	<g>
		<path fill="none" stroke="#A8B28E" stroke-width="9.434" stroke-miterlimit="10" d="M394.466,98.845c0,0,0-21.286-25.943-21.286
			c0,0-19.654,1.632-23.585,26.003v198.899"/>
		<path fill="none" stroke="#A8B28E" stroke-width="9.434" stroke-miterlimit="10" d="M319.141,98.845c0,0,0-21.286-25.943-21.286
			c0,0-19.654,1.632-23.585,26.003v213.579"/>
		
			<line fill="none" stroke="#A8B28E" stroke-width="9.434" stroke-miterlimit="10" x1="266.321" y1="167.241" x2="344.937" y2="167.241"/>
		
			<line fill="none" stroke="#A8B28E" stroke-width="9.434" stroke-miterlimit="10" x1="269.613" y1="238.782" x2="344.937" y2="238.782"/>
		<path fill="none" stroke="#A8B28E" stroke-width="9.434" stroke-miterlimit="10" d="M87.862,295.779
			c0,0,14.151-9.041,36.164,11.399c22.013,20.44,56.604-6.696,56.604-6.696s23.585-29.158,59.748,14.319
			c0,0,30.954,23.037,53.999-19.023c0,0,21.472-21.62,50.56,11.399s49.528-9.041,49.528-9.041s13.365-11.399,27.516-2.358"/>
		<path fill="none" stroke="#A8B28E" stroke-width="9.434" stroke-miterlimit="10" d="M87.469,385.001
			c0,0,14.151-9.041,36.164,11.399s56.604-6.696,56.604-6.696s23.585-29.158,59.748,14.319c0,0,30.954,23.037,53.999-19.023
			c0,0,21.472-21.62,50.56,11.399c29.088,33.019,49.528-9.041,49.528-9.041s13.365-11.399,27.516-2.358"/>
	</g>
</g>
</svg>
