<?xml version="1.0" encoding="utf-8"?>
<!-- Generator: Adobe Illustrator 17.0.0, SVG Export Plug-In . SVG Version: 6.00 Build 0)  -->
<!DOCTYPE svg PUBLIC "-//W3C//DTD SVG 1.1//EN" "http://www.w3.org/Graphics/SVG/1.1/DTD/svg11.dtd">
<svg version="1.1" id="Capa_1" xmlns="http://www.w3.org/2000/svg" xmlns:xlink="http://www.w3.org/1999/xlink" x="0px" y="0px"
	 width="100px" height="100px" viewBox="0 0 100 100" enable-background="new 0 0 100 100" xml:space="preserve">
<g>
	<circle fill="#FFFFFF" stroke="#CA4826" stroke-width="2.0426" stroke-miterlimit="10" cx="50" cy="49.63" r="48"/>
	<g id="pXmeGC_1_">
		<g>
			<path class="svg-fill" fill="#A8B28E" d="M35.555,44.539c-1.254-0.168-2.395-0.522-3.299-1.426c-1.557-1.555-1.976-3.518-1.887-5.596
				c0.252-5.888,0.571-11.772,0.86-17.659c0.087-1.781,0.154-3.563,0.248-5.343c0.054-1.025,0.397-1.492,1.01-1.445
				c0.562,0.044,0.773,0.486,0.721,1.547c-0.37,7.617-0.75,15.234-1.107,22.852c-0.07,1.505,0.115,2.973,1.112,4.206
				c0.792,0.979,1.918,1.151,3.071,1.23c0.918,0.063,1.133,0.264,1.097,1.179c-0.12,3.068-0.246,6.136-0.383,9.204
				c-0.172,3.859-0.362,7.717-0.538,11.576C36.223,70.085,36,75.304,35.753,80.523c-0.086,1.814,0.736,3.223,2.269,3.779
				c1.462,0.531,3.189,0.074,3.998-1.26c0.412-0.679,0.68-1.579,0.656-2.368c-0.143-4.727-0.386-9.451-0.603-14.175
				c-0.171-3.735-0.358-7.469-0.525-11.204c-0.165-3.686-0.322-7.372-0.469-11.058c-0.048-1.194,0.015-1.244,1.197-1.332
				c2.516-0.187,3.949-1.539,3.997-4.058c0.048-2.469-0.082-4.944-0.194-7.414c-0.204-4.502-0.454-9.001-0.681-13.502
				c-0.062-1.236-0.104-2.474-0.173-3.71c-0.033-0.604,0.137-1.058,0.812-1.077c0.664-0.018,0.892,0.445,0.923,1.024
				c0.109,2.052,0.209,4.105,0.311,6.158c0.282,5.713,0.595,11.425,0.826,17.14c0.084,2.067-0.31,4.048-1.855,5.614
				c-0.916,0.929-2.078,1.297-3.205,1.44c0,1.624-0.053,3.202,0.01,4.776c0.202,5.047,0.448,10.093,0.675,15.139
				c0.235,5.22,0.448,10.44,0.709,15.658c0.138,2.757-1.122,4.969-3.383,5.764c-3.622,1.273-7.2-1.451-7.025-5.319
				c0.344-7.57,0.661-15.14,0.996-22.71c0.17-3.834,0.358-7.668,0.53-11.502C35.577,45.761,35.555,45.193,35.555,44.539z"/>
			<path class="svg-fill" fill="#A8B28E" d="M69.64,49.617c0,11.637,0,23.275,0,34.912c0,1.481-0.134,1.578-1.61,1.622
				c-2.077,0.062-3.979-0.351-5.566-1.792c-1.603-1.455-2.395-3.268-2.245-5.418c0.442-6.345,0.93-12.686,1.403-19.028
				c0.074-0.987,0.153-1.974,0.252-2.959c0.04-0.401-0.033-0.6-0.491-0.72c-3.42-0.899-5.361-3.385-5.375-6.979
				c-0.029-7.725-0.048-15.451,0.004-23.175c0.04-5.856,3.29-10.467,8.649-12.301c1.22-0.418,2.555-0.532,3.849-0.694
				c0.765-0.096,1.084,0.268,1.125,1.028c0.013,0.247,0.005,0.495,0.005,0.743C69.64,26.441,69.64,38.029,69.64,49.617z
				 M67.878,14.865c-0.481,0.061-0.876,0.081-1.257,0.163c-5.26,1.142-8.815,5.367-8.866,10.796c-0.075,7.85-0.04,15.7-0.01,23.551
				c0.01,2.744,1.723,4.78,4.246,5.23c1.778,0.317,1.778,0.317,1.634,2.122c-0.008,0.099-0.021,0.197-0.028,0.296
				c-0.279,3.677-0.56,7.354-0.837,11.031c-0.269,3.578-0.49,7.161-0.815,10.735c-0.302,3.316,2.565,6.06,5.934,5.532
				C67.878,61.209,67.878,38.091,67.878,14.865z"/>
			<path class="svg-fill" fill="#A8B28E" d="M37.406,22.849c0,2.746,0.001,5.491-0.001,8.237c0,0.247,0.071,0.553-0.046,0.728
				c-0.209,0.311-0.54,0.753-0.815,0.749c-0.277-0.004-0.58-0.459-0.805-0.765c-0.096-0.13-0.029-0.384-0.029-0.582
				c-0.001-5.59-0.001-11.18,0-16.77c0-0.198-0.07-0.456,0.027-0.581c0.232-0.298,0.525-0.703,0.832-0.74
				c0.24-0.029,0.591,0.395,0.791,0.687c0.118,0.172,0.045,0.48,0.045,0.727C37.407,17.309,37.406,20.079,37.406,22.849z"/>
			<path class="svg-fill" fill="#A8B28E" d="M42.162,22.853c0,2.746,0.001,5.491-0.001,8.237c0,0.247,0.071,0.554-0.047,0.727
				c-0.21,0.31-0.544,0.75-0.818,0.745c-0.277-0.006-0.586-0.457-0.8-0.769c-0.105-0.154-0.031-0.433-0.031-0.655
				c-0.001-5.541-0.001-11.081,0-16.622c0-0.222-0.078-0.508,0.03-0.654c0.222-0.303,0.526-0.701,0.833-0.737
				c0.24-0.028,0.589,0.397,0.788,0.69c0.117,0.173,0.044,0.48,0.044,0.727C42.163,17.313,42.162,20.083,42.162,22.853z"/>
		</g>
	</g>
</g>
</svg>
