<?xml version="1.0" encoding="utf-8"?>
<!-- Generator: Adobe Illustrator 17.0.0, SVG Export Plug-In . SVG Version: 6.00 Build 0)  -->
<!DOCTYPE svg PUBLIC "-//W3C//DTD SVG 1.1//EN" "http://www.w3.org/Graphics/SVG/1.1/DTD/svg11.dtd">
<svg version="1.1" id="Capa_1" xmlns="http://www.w3.org/2000/svg" xmlns:xlink="http://www.w3.org/1999/xlink" x="0px" y="0px"
	 width="100px" height="100px" viewBox="0 0 100 100" enable-background="new 0 0 100 100" xml:space="preserve">
<g>
	<g>
		<circle fill="#FFFFFF" stroke="#CA4826" stroke-width="2.0426" stroke-miterlimit="10" cx="50.319" cy="49.437" r="48"/>
	</g>
	<g id="YpGXX5_1_">
		<g>
			<path class="svg-fill" fill="#A8B28E" d="M49.862,64.582c-1.117-0.196-2.261-0.339-3.376-0.606c-1.277-0.307-2.488-0.815-3.465-1.733
				c-1.347-1.267-1.263-2.855,0.191-4.023c1.145-0.92,2.483-1.417,3.899-1.71c3.015-0.624,5.997-0.544,8.911,0.536
				c1.034,0.383,1.989,0.906,2.69,1.792c0.756,0.955,0.761,1.992,0.003,2.939c-1.141,1.425-2.775,1.949-4.454,2.338
				c-0.934,0.217-1.9,0.301-2.878,0.45"/>
			<path class="svg-fill" fill="#A8B28E" d="M47.473,29.747c0.312,0.249,0.628,0.493,0.935,0.748c1.482,1.23,2.957,2.469,4.447,3.689
				c0.403,0.33,0.555,0.706,0.511,1.23c-0.389,4.604-0.758,9.209-1.138,13.813c-0.067,0.809-0.158,1.615-0.24,2.434
				c-0.81,0-1.594,0.019-2.376-0.009c-0.343-0.012-0.57-0.185-0.602-0.603c-0.331-4.223-0.678-8.444-1.026-12.665
				c-0.206-2.494-0.422-4.988-0.63-7.482c-0.029-0.354-0.034-0.711-0.05-1.066C47.361,29.806,47.417,29.777,47.473,29.747z"/>
			<path class="svg-fill" fill="#A8B28E" d="M13.112,44.534c0.651-0.066,1.302-0.139,1.954-0.195c2.43-0.211,4.859-0.431,7.292-0.609
				c0.41-0.03,0.856,0.075,1.249,0.218c7.348,2.68,14.691,5.375,22.035,8.067c0.118,0.043,0.231,0.098,0.39,0.165
				c-0.905,0.393-1.755,0.789-2.63,1.123c-0.208,0.079-0.503-0.014-0.742-0.083c-6.038-1.729-12.074-3.466-18.111-5.2
				c-3.612-1.037-7.225-2.071-10.836-3.111c-0.211-0.061-0.412-0.159-0.618-0.24C13.101,44.626,13.106,44.58,13.112,44.534z"/>
			<path class="svg-fill" fill="#A8B28E" d="M57.294,52.959C67.41,49.73,77.4,46.541,87.39,43.352c0.031,0.057,0.061,0.114,0.092,0.171
				c-0.165,0.186-0.327,0.374-0.494,0.557c-1.311,1.441-2.606,2.897-3.95,4.308c-0.272,0.286-0.709,0.477-1.104,0.575
				c-6.949,1.723-13.908,3.405-20.851,5.151c-1.049,0.264-1.944,0.412-2.744-0.502C58.113,53.353,57.735,53.227,57.294,52.959z"/>
			<path class="svg-fill" fill="#A8B28E" d="M15.611,64.68c0.958-1.026,2.046-1.962,2.845-3.1c1.244-1.774,3.047-2.055,4.952-2.339
				c3.553-0.53,7.092-1.145,10.638-1.723c2.276-0.371,4.553-0.741,6.765-1.101c0.262,0.753,0.51,1.464,0.782,2.245
				c-8.575,2.064-17.224,4.145-25.872,6.226C15.684,64.818,15.648,64.749,15.611,64.68z"/>
			<path class="svg-fill" fill="#A8B28E" d="M59.825,58.548c0.32-0.75,0.618-1.446,0.957-2.24c9.101,0.817,18.311,1.643,27.522,2.47
				c0.007,0.065,0.015,0.13,0.022,0.195c-0.47,0.125-0.938,0.261-1.411,0.372c-2.516,0.592-5.017,1.268-7.558,1.722
				c-1.034,0.185-2.163-0.065-3.237-0.21c-4.175-0.566-8.344-1.168-12.515-1.759C62.339,58.918,61.074,58.73,59.825,58.548z"/>
			<path class="svg-fill" fill="#A8B28E" d="M59.036,58.484c-1.02-1.569-2.577-2.225-4.23-2.649c-2.982-0.764-5.968-0.734-8.923,0.19
				c-1.686,0.527-2.529,1.103-3.597,2.421c-1.071-0.939-1.149-2.378-0.16-3.518c0.915-1.054,2.128-1.64,3.435-2.023
				c3.835-1.123,7.646-1.103,11.359,0.462c0.823,0.347,1.594,0.93,2.241,1.557C60.228,55.957,60.138,57.363,59.036,58.484z"/>
			<path class="svg-fill" fill="#A8B28E" d="M52.468,51.731c0.103-1.266,0.204-2.515,0.309-3.809c1.686,0.309,3.223,0.8,4.442,1.971
				c0.379,0.364,0.692,0.82,0.946,1.283c0.455,0.827,0.396,0.877-0.48,1.186c-0.681,0.24-1.317,0.371-2.028,0.043
				c-0.475-0.219-1.028-0.277-1.55-0.384C53.587,51.912,53.062,51.834,52.468,51.731z"/>
			<path class="svg-fill" fill="#A8B28E" d="M42.928,50.519c1.465-1.619,3.278-2.295,5.358-2.646c0.118,1.32,0.23,2.568,0.345,3.859
				c-0.796,0.203-1.587,0.392-2.441,0.02C45.157,51.303,44.082,50.95,42.928,50.519z"/>
		</g>
	</g>
</g>
</svg>
