<?xml version="1.0" encoding="utf-8"?>
<!-- Generator: Adobe Illustrator 17.0.0, SVG Export Plug-In . SVG Version: 6.00 Build 0)  -->
<!DOCTYPE svg PUBLIC "-//W3C//DTD SVG 1.1//EN" "http://www.w3.org/Graphics/SVG/1.1/DTD/svg11.dtd">
<svg version="1.1" id="Capa_1" xmlns="http://www.w3.org/2000/svg" xmlns:xlink="http://www.w3.org/1999/xlink" x="0px" y="0px"
	 width="100px" height="100px" viewBox="0 0 100 100" enable-background="new 0 0 100 100" xml:space="preserve">
<g>
	<g>
		<circle fill="#FFFFFF" stroke="#CA4826" stroke-width="2.0426" stroke-miterlimit="10" cx="50.088" cy="49.822" r="48"/>
	</g>
	<g id="sAcuVH_1_">
		<g>
			<path class="svg-fill" fill="#A8B28E" d="M59.073,35.977c-0.492-6.915-8.507-11.257-14.728-8.105c-4.001,2.027-5.938,5.365-5.941,9.82
				c-0.011,14.033-0.004,28.065-0.007,42.098c0,0.524,0.155,1.184-0.099,1.54c-0.419,0.588-1.114,1.349-1.692,1.348
				c-0.552-0.001-1.164-0.831-1.626-1.397c-0.196-0.24-0.098-0.737-0.098-1.117c-0.003-14.128-0.022-28.256,0.007-42.384
				c0.012-5.982,2.712-10.388,8.043-13.13c7.739-3.981,18.119,1.22,19.507,9.801c0.176,1.089,0.542,1.615,1.667,1.88
				c4.66,1.094,8.328,5.769,8.397,10.541c0.021,1.439-0.553,2.173-2.019,2.183c-6.3,0.042-12.601,0.043-18.9-0.007
				c-1.433-0.011-1.999-0.784-1.969-2.238c0.096-4.65,3.657-9.219,8.163-10.473C58.185,36.223,58.592,36.111,59.073,35.977z
				 M68.662,45.448c-0.701-3.705-4.028-6.176-8.065-6.038c-3.506,0.119-6.718,2.847-7.086,6.038
				C58.56,45.448,63.606,45.448,68.662,45.448z"/>
			<path class="svg-fill" fill="#A8B28E" d="M62.965,57.929c-0.001,1.238,0.035,2.477-0.011,3.713c-0.043,1.146-0.451,2.133-1.795,2.118
				c-1.336-0.015-1.749-0.997-1.763-2.149c-0.03-2.427-0.018-4.856-0.006-7.283c0.006-1.172,0.446-2.082,1.732-2.22
				c1.047-0.112,1.793,0.824,1.837,2.252C62.995,55.548,62.966,56.739,62.965,57.929z"/>
			<path class="svg-fill" fill="#A8B28E" d="M68.497,57.98c0.001,1.286,0.022,2.573-0.006,3.858c-0.027,1.258-0.717,2.017-1.775,1.933
				c-1.152-0.091-1.653-0.801-1.652-1.923c0.004-2.62,0.003-5.239,0.002-7.859c0-1.148,0.606-1.861,1.71-1.864
				c1.104-0.003,1.719,0.704,1.72,1.854C68.498,55.312,68.497,56.646,68.497,57.98z"/>
			<path class="svg-fill" fill="#A8B28E" d="M53.857,57.937c0-1.333-0.011-2.666,0.004-3.999c0.013-1.147,0.647-1.833,1.757-1.814
				c1.033,0.018,1.67,0.71,1.683,1.765c0.033,2.714,0.043,5.429-0.005,8.142c-0.018,1.028-0.614,1.731-1.699,1.732
				c-1.151,0.001-1.717-0.703-1.735-1.826C53.841,60.604,53.856,59.27,53.857,57.937z"/>
		</g>
	</g>
</g>
</svg>
