<?xml version="1.0" encoding="utf-8"?>
<!-- Generator: Adobe Illustrator 17.0.0, SVG Export Plug-In . SVG Version: 6.00 Build 0)  -->
<!DOCTYPE svg PUBLIC "-//W3C//DTD SVG 1.1//EN" "http://www.w3.org/Graphics/SVG/1.1/DTD/svg11.dtd">
<svg version="1.1" id="Capa_1" xmlns="http://www.w3.org/2000/svg" xmlns:xlink="http://www.w3.org/1999/xlink" x="0px" y="0px"
	 width="100px" height="100px" viewBox="0 0 100 100" enable-background="new 0 0 100 100" xml:space="preserve">
<g>
	<g>
		<circle fill="#FFFFFF" stroke="#CA4826" stroke-width="2.0426" stroke-miterlimit="10" cx="50" cy="49.315" r="48"/>
	</g>
	<g id="PKoJ7q_1_">
		<g>
			<path class="svg-fill" fill="#A8B28E" d="M49.347,57.96c-7.422,0-14.844-0.044-22.266,0.021c-3.19,0.028-5.833-2.449-6.246-5.205
				c-0.04-0.265-0.045-0.538-0.046-0.807c-0.003-3.846,0.068-7.694-0.025-11.538c-0.072-2.986,2.565-6.246,6.248-6.231
				c6.373,0.026,12.746,0.007,19.119,0.007c8.519,0,17.037,0,25.556,0c3.149,0,5.673,2.086,6.26,5.18
				c0.044,0.232,0.054,0.473,0.054,0.71c0.003,3.989,0.007,7.978,0.001,11.967c-0.004,2.932-2.64,5.699-5.58,5.871
				c-0.285,0.017-0.572,0.022-0.858,0.022C64.159,57.96,56.753,57.96,49.347,57.96z M75.621,46.241c0-0.181,0-0.322,0-0.463
				c0-1.812,0.004-3.623-0.001-5.435c-0.006-2.325-1.377-3.698-3.709-3.699c-14.986-0.003-29.972-0.002-44.958,0.001
				c-0.332,0-0.673-0.005-0.996,0.061c-1.749,0.358-2.764,1.635-2.782,3.518c-0.018,1.891-0.005,3.782-0.004,5.673
				c0,0.107,0.016,0.214,0.027,0.344C40.665,46.241,58.107,46.241,75.621,46.241z M23.192,48.696c0,1.252-0.063,2.477,0.027,3.689
				c0.044,0.59,0.28,1.218,0.597,1.724c0.661,1.056,1.726,1.442,2.94,1.442c15.097,0.001,30.193,0.001,45.29,0
				c0.111,0,0.223,0.001,0.334-0.005c1.549-0.076,2.928-1.157,3.114-2.658c0.171-1.375,0.123-2.778,0.173-4.193
				C58.129,48.696,40.686,48.696,23.192,48.696z"/>
			<path class="svg-fill" fill="#A8B28E" d="M32.341,77.201c-1.389-2.177-2.297-4.389-1.247-6.93c0.237-0.574,0.667-1.068,1.01-1.597
				c0.034-0.053,0.082-0.096,0.124-0.144c1.153-1.333,1.107-1.854-0.301-2.986c0.172-0.34,0.347-0.69,0.528-1.038
				c0.181-0.349,0.368-0.695,0.551-1.041c2.321,1.151,3.004,3.641,1.626,5.847c-0.159,0.254-0.33,0.509-0.538,0.724
				c-1.167,1.211-1.272,2.605-0.693,4.096c0.21,0.541,0.52,1.044,0.802,1.599C33.62,76.191,33.013,76.671,32.341,77.201z"/>
			<path class="svg-fill" fill="#A8B28E" d="M42.778,65.524c0.36-0.695,0.709-1.368,1.057-2.04c2.239,1.102,2.775,3.146,2.067,4.955
				c-0.221,0.565-0.545,1.131-0.955,1.573c-1.191,1.286-1.276,2.703-0.653,4.236c0.201,0.496,0.488,0.956,0.758,1.478
				c-0.584,0.463-1.189,0.942-1.83,1.45c-0.681-0.871-1.14-1.834-1.445-2.87c-0.637-2.165-0.234-4.095,1.295-5.789
				C44.246,67.219,44.191,66.781,42.778,65.524z"/>
			<path class="svg-fill" fill="#A8B28E" d="M56.011,75.736c-0.585,0.462-1.192,0.941-1.831,1.445c-0.835-1.14-1.392-2.365-1.631-3.729
				c-0.33-1.883,0.199-3.512,1.479-4.912c0.064-0.07,0.128-0.142,0.19-0.214c0.917-1.057,0.838-1.773-0.288-2.621
				c-0.05-0.038-0.099-0.076-0.199-0.154c0.359-0.694,0.718-1.388,1.076-2.081c2.034,0.933,2.887,3.144,1.987,5.168
				c-0.222,0.5-0.522,0.996-0.893,1.394c-1.131,1.216-1.27,2.578-0.695,4.058C55.423,74.647,55.731,75.168,56.011,75.736z"/>
			<path class="svg-fill" fill="#A8B28E" d="M66.858,75.737c-0.587,0.463-1.183,0.933-1.764,1.392c-0.062-0.021-0.104-0.021-0.118-0.041
				c-1.453-2.127-2.249-4.378-1.176-6.921c0.224-0.53,0.624-0.986,0.943-1.475c0.017-0.026,0.042-0.048,0.063-0.072
				c1.255-1.426,1.23-1.837-0.214-3.09c0.349-0.677,0.703-1.362,1.057-2.048c2.089,1.027,2.801,2.966,2.102,4.86
				c-0.231,0.625-0.603,1.238-1.046,1.736c-1.078,1.21-1.22,2.534-0.667,3.98C66.25,74.617,66.56,75.137,66.858,75.737z"/>
			<path class="svg-fill" fill="#A8B28E" d="M62.73,50.584c0,0.803,0,1.559,0,2.348c-1.225,0-2.434,0-3.669,0c0-0.787,0-1.554,0-2.348
				C60.287,50.584,61.486,50.584,62.73,50.584z"/>
			<path class="svg-fill" fill="#A8B28E" d="M68.704,50.591c0,0.784,0,1.538,0,2.333c-1.215,0-2.422,0-3.665,0c0-0.768,0-1.534,0-2.333
				C66.26,50.591,67.469,50.591,68.704,50.591z"/>
		</g>
	</g>
</g>
</svg>
