<?xml version="1.0" encoding="utf-8"?>
<!-- Generator: Adobe Illustrator 17.0.0, SVG Export Plug-In . SVG Version: 6.00 Build 0)  -->
<!DOCTYPE svg PUBLIC "-//W3C//DTD SVG 1.1//EN" "http://www.w3.org/Graphics/SVG/1.1/DTD/svg11.dtd">
<svg version="1.1" id="Capa_1" xmlns="http://www.w3.org/2000/svg" xmlns:xlink="http://www.w3.org/1999/xlink" x="0px" y="0px"
	 width="100px" height="100px" viewBox="0 0 100 100" enable-background="new 0 0 100 100" xml:space="preserve">
<g>
	<g>
		<circle fill="#FFFFFF" stroke="#CA4826" stroke-width="2.0426" stroke-miterlimit="10" cx="49.721" cy="49.585" r="48"/>
	</g>
	<g id="eXifgC_1_">
		<g>
			<path class="svg-fill" fill="#A8B28E" d="M15.297,37.098c0.381-0.37,0.72-0.801,1.15-1.1c7.444-5.168,15.649-8.459,24.601-9.85
				c1.98-0.308,3.992-0.419,5.992-0.59c1.231-0.105,2.471-0.254,3.701-0.209c8.821,0.324,17.301,2.094,25.27,6.022
				c3.044,1.501,5.956,3.214,8.718,5.185c0,0.633,0,1.266,0,1.899c-0.831,0.678-1.243,0.717-2.118,0.11
				c-4.778-3.317-9.922-5.901-15.472-7.64c-8.822-2.764-17.796-3.321-26.902-1.719c-8.103,1.425-15.5,4.555-22.269,9.207
				c-1.245,0.856-1.726,0.786-2.67-0.366C15.297,37.73,15.297,37.414,15.297,37.098z"/>
			<path class="svg-fill" fill="#A8B28E" d="M50.167,39.618c8.879,0.027,16.975,2.569,24.276,7.63c0.824,0.571,1.059,1.387,0.61,2.082
				c-0.486,0.752-1.377,0.874-2.254,0.266c-4.125-2.86-8.62-4.898-13.502-6.061c-4.882-1.163-9.812-1.362-14.782-0.651
				c-6.211,0.889-11.859,3.186-17.012,6.74c-0.829,0.572-1.691,0.45-2.197-0.291c-0.473-0.692-0.254-1.506,0.583-2.084
				c6.943-4.79,14.612-7.386,23.059-7.63C49.354,39.608,49.76,39.618,50.167,39.618z"/>
			<path class="svg-fill" fill="#A8B28E" d="M50.118,53.721c5.273,0.149,10.108,1.581,14.487,4.518c0.519,0.348,0.893,0.766,0.861,1.43
				c-0.055,1.145-1.255,1.671-2.313,1.078c-1.553-0.869-3.069-1.87-4.725-2.478c-7.39-2.716-14.445-1.954-21.075,2.353
				c-1.092,0.71-2.192,0.391-2.449-0.751c-0.153-0.682,0.172-1.179,0.714-1.55c2.904-1.988,6.079-3.352,9.542-3.977
				C46.796,54.048,48.464,53.923,50.118,53.721z"/>
			<path class="svg-fill" fill="#A8B28E" d="M55.841,73.587c-0.06,3.718-2.924,5.614-5.639,5.77c-2.996,0.172-5.731-2.711-5.732-5.769
				c-0.002-3.098,2.598-5.695,5.698-5.693C53.291,67.896,55.84,70.455,55.841,73.587z M50.157,70.804
				c-1.557,0.002-2.797,1.233-2.8,2.778c-0.003,1.541,1.241,2.788,2.79,2.799c1.568,0.011,2.87-1.279,2.849-2.823
				C52.975,72.023,51.716,70.802,50.157,70.804z"/>
		</g>
	</g>
</g>
</svg>
