<?xml version="1.0" encoding="utf-8"?>
<!-- Generator: Adobe Illustrator 17.0.0, SVG Export Plug-In . SVG Version: 6.00 Build 0)  -->
<!DOCTYPE svg PUBLIC "-//W3C//DTD SVG 1.1//EN" "http://www.w3.org/Graphics/SVG/1.1/DTD/svg11.dtd">
<svg version="1.1" id="Capa_1" xmlns="http://www.w3.org/2000/svg" xmlns:xlink="http://www.w3.org/1999/xlink" x="0px" y="0px"
	 width="100px" height="100px" viewBox="0 0 100 100" enable-background="new 0 0 100 100" xml:space="preserve">
<g>
	<g>
		<circle fill="#FFFFFF" stroke="#CA4826" stroke-width="2.0426" stroke-miterlimit="10" cx="49.923" cy="50" r="48"/>
		<text class="svg-fill" transform="matrix(1 0 0 1 27.903 85.46)" fill="#A8B28E" font-family="'CenturyGothic-Bold'" font-size="17.7585">24hrs</text>
	</g>
	<g id="nNEwLf_1_">
		<g>
			<path class="svg-fill" fill="#A8B28E" d="M76.251,41.439c-1.499,3.677-2.778,4.525-6.823,4.526c-2.963,0-5.927,0.014-8.89-0.003
				c-3.788-0.022-6.049-2.294-6.055-6.06c-0.004-2.482-0.001-4.963-0.001-7.575c-1.423,0.128-2.738,0.245-4.328,0.388
				c1.289-1.846,2.483-3.484,3.589-5.18c0.367-0.563,0.64-1.255,0.733-1.918c0.431-3.073,2.288-5.009,5.38-5.112
				c3.708-0.123,7.424-0.07,11.134,0.004c2.6,0.052,4.217,1.515,5.036,3.929c0.048,0.141,0.147,0.265,0.222,0.396
				C76.251,30.368,76.251,35.904,76.251,41.439z M57.18,29.4c0,0.469,0,0.897,0,1.325c0.001,3.158-0.019,6.317,0.01,9.475
				c0.018,1.994,1.123,3.078,3.082,3.084c3.435,0.01,6.87,0.013,10.305-0.001c1.758-0.007,2.987-1.068,3.009-2.82
				c0.06-4.855,0.055-9.712-0.005-14.567c-0.02-1.588-1.086-2.731-2.554-2.757c-3.749-0.068-7.501-0.056-11.25-0.008
				c-1.27,0.017-2.244,0.96-2.52,2.131c-0.322,1.363-0.671,2.719-1.01,4.085C56.319,29.35,56.694,29.372,57.18,29.4z"/>
			<path class="svg-fill" fill="#A8B28E" d="M24.205,63.365c0.304-2.479,0.559-4.727,0.859-6.97c0.282-2.111,0.62-4.215,0.917-6.324
				c0.322-2.285,1.874-3.951,4.196-4.144c2.081-0.173,4.184-0.114,6.277-0.093c0.335,0.003,0.729,0.277,0.989,0.533
				c0.703,0.692,1.348,1.443,2.3,2.48c0.737-0.887,1.271-1.676,1.957-2.299c0.418-0.38,1.059-0.678,1.617-0.71
				c1.615-0.093,3.24-0.051,4.86-0.028c3.187,0.044,4.889,1.526,5.361,4.651c0.524,3.472,1.066,6.941,1.539,10.42
				c0.103,0.756-0.05,1.547-0.091,2.462c0.4,0,0.824,0,1.249,0c5.336,0,10.672,0,16.008,0c0.356,0,0.712-0.007,1.067,0.011
				c0.831,0.042,1.512,0.326,1.535,1.284c0.024,1.033-0.686,1.326-1.568,1.365c-0.355,0.016-0.711,0.011-1.067,0.011
				c-15.574,0-31.147,0.001-46.721-0.001c-0.395,0-0.86,0.111-1.169-0.057c-0.53-0.289-1.211-0.674-1.376-1.169
				c-0.239-0.716,0.33-1.23,1.1-1.381C24.198,63.376,24.348,63.327,24.205,63.365z M43.756,59.45
				c-3.431,2.924-3.777,2.951-7.168,0.602c-0.032-0.023-0.062-0.051-0.097-0.067c-0.587-0.276-0.612-0.654-0.387-1.248
				c0.822-2.176,1.578-4.376,2.346-6.572c0.1-0.287,0.283-0.757,0.163-0.877c-0.996-0.995-1.92-2.434-3.128-2.757
				c-1.639-0.439-3.522-0.11-5.278,0.089c-0.944,0.107-1.494,0.851-1.632,1.91c-0.453,3.48-0.938,6.958-1.509,10.421
				c-0.189,1.144,0.283,1.766,1.203,2.115c0.569,0.216,1.229,0.262,1.849,0.263c6.401,0.018,12.803,0.012,19.204,0.009
				c0.394,0,0.794,0.007,1.182-0.049c1.484-0.214,2.105-1.056,1.884-2.538c-0.499-3.354-1.065-6.7-1.477-10.065
				c-0.166-1.352-0.856-2.066-2.065-2.174c-1.646-0.147-3.311-0.106-4.968-0.091c-0.264,0.002-0.565,0.25-0.78,0.457
				c-0.568,0.547-1.059,1.181-1.655,1.692c-0.56,0.48-0.526,0.939-0.296,1.563C42.046,54.571,42.896,57.025,43.756,59.45z
				 M39.839,56.325c-0.285,0.743-0.506,1.203-0.626,1.688c-0.05,0.203,0.043,0.548,0.196,0.667c0.164,0.127,0.531,0.159,0.706,0.056
				c0.174-0.101,0.336-0.444,0.299-0.643C40.322,57.6,40.112,57.129,39.839,56.325z"/>
			<path class="svg-fill" fill="#A8B28E" d="M30.392,35.582c0.002-5.272,4.123-9.397,9.376-9.387c5.188,0.01,9.444,4.275,9.411,9.429
				c-0.033,5.1-4.261,9.315-9.392,9.362C34.617,45.034,30.391,40.803,30.392,35.582z M34.031,32.167
				c-1.883,2.964-1.081,6.81,1.778,8.87c2.926,2.108,6.814,1.601,9.133-1.191c0.942-1.134,1.062-2.041-0.057-2.99
				c-0.949-0.804-2.174-1.426-3.379-1.756C38.896,34.386,36.153,34.095,34.031,32.167z M46.384,34.392
				c-0.64-2.644-2.041-4.296-4.287-5.125c-2.147-0.792-4.238-0.574-6.273,0.858C38.818,32.915,43.061,32.133,46.384,34.392z"/>
		</g>
	</g>
</g>
</svg>
