<?xml version="1.0" encoding="utf-8"?>
<!-- Generator: Adobe Illustrator 17.0.0, SVG Export Plug-In . SVG Version: 6.00 Build 0)  -->
<!DOCTYPE svg PUBLIC "-//W3C//DTD SVG 1.1//EN" "http://www.w3.org/Graphics/SVG/1.1/DTD/svg11.dtd">
<svg version="1.1" id="Capa_1" xmlns="http://www.w3.org/2000/svg" xmlns:xlink="http://www.w3.org/1999/xlink" x="0px" y="0px"
	 width="100px" height="100px" viewBox="0 0 100 100" enable-background="new 0 0 100 100" xml:space="preserve">
<g>
	<circle fill="#FFFFFF" stroke="#CA4826" stroke-width="2.0426" stroke-miterlimit="10" cx="50.007" cy="49.866" r="48"/>
	<g id="_x31_pm6A3_1_">
		<g>
			<path class="svg-fill" fill="#A8B28E" d="M63.717,25.149c0.166,0.67,0.313,1.038,0.343,1.415c0.528,6.491,0.525,6.492-5.811,6.494
				c-4.103,0.001-8.205,0-12.65,0c0,4.752,0,9.157,0,14.011c5.671,0,11.28,0,17.198,0c0,2.912,0,5.391,0,8.23
				c-5.663,0-11.281,0-17.509,0c0,4.648-0.116,8.973,0.122,13.279c0.037,0.668,1.669,1.735,2.606,1.783
				c3.984,0.203,7.985,0.09,11.979,0.097c5.1,0.009,5.112,0.011,4.906,5.148c-0.035,0.872-0.221,1.739-0.364,2.809
				c-9.864,0-19.577,0-29.488,0c0-17.789,0-35.389,0-53.265C44.56,25.149,54.012,25.149,63.717,25.149z"/>
		</g>
	</g>
</g>
</svg>
